<svg width="227" height="46" viewBox="0 0 227 46" fill="none" xmlns="http://www.w3.org/2000/svg">
<g clip-path="url(#clip0_4_26)">
<path d="M46.1511 23H0.0426788V0H46.1511V23Z" fill="#3069B1"/>
<path d="M23.1243 46.0002H0.0426788V23.0002H23.1243V46.0002Z" fill="#FFC032"/>
<path d="M46.151 46.0002H23.1243V23.0002H46.151V46.0002Z" fill="#90C4E9"/>
<path d="M70.057 36.4716V14.0192H61.4838V11.0073H82.0925V14.0192H73.5193V36.4716H70.057ZM93.5234 34.1716C92.3144 35.1573 91.2152 35.8692 90.1161 36.2525C89.017 36.6906 87.8079 36.8549 86.5439 36.8549C84.5106 36.8549 82.9168 36.362 81.7627 35.3763C80.6636 34.3906 80.114 33.1311 80.114 31.5978C80.114 30.6668 80.3339 29.8454 80.7735 29.1335C81.1582 28.3668 81.7078 27.7644 82.4222 27.3263C83.0817 26.8882 83.8511 26.5049 84.6754 26.2859C85.3349 26.1216 86.2692 25.9573 87.5332 25.8478C90.1161 25.5192 92.0396 25.1906 93.2486 24.7525C93.2486 24.3144 93.2486 24.0406 93.2486 23.9311C93.2486 22.6716 92.9738 21.7406 92.3693 21.2478C91.545 20.5359 90.3359 20.2073 88.7422 20.2073C87.2034 20.2073 86.1043 20.4263 85.3899 20.9739C84.6754 21.4668 84.1259 22.3978 83.7961 23.712L80.6636 23.2739C80.9384 21.9597 81.433 20.9192 82.0925 20.0978C82.697 19.3311 83.6862 18.6739 84.8952 18.2359C86.1043 17.7978 87.5881 17.5787 89.1818 17.5787C90.7756 17.5787 92.0945 17.7978 93.0837 18.1263C94.1279 18.5097 94.8423 19.0025 95.337 19.5501C95.7766 20.0978 96.1063 20.8097 96.3262 21.6859C96.4361 22.2335 96.491 23.1644 96.491 24.5335V28.7501C96.491 31.6525 96.546 33.4597 96.7109 34.2263C96.8208 34.993 97.0956 35.7597 97.4803 36.4716H94.1279C93.7982 35.8144 93.6333 35.0478 93.5234 34.1716ZM93.2486 27.2168C92.0945 27.6549 90.3359 28.0382 88.0278 28.3668C86.7088 28.5859 85.7745 28.7501 85.225 29.0239C84.6754 29.243 84.2907 29.5716 83.961 30.0097C83.6862 30.4478 83.5213 30.9406 83.5213 31.4882C83.5213 32.3644 83.8511 33.0216 84.5106 33.5692C85.17 34.1168 86.1043 34.4454 87.3133 34.4454C88.5773 34.4454 89.6764 34.1716 90.6107 33.6239C91.5999 33.1311 92.2594 32.4192 92.754 31.4882C93.0837 30.7763 93.2486 29.7359 93.2486 28.3668V27.2168ZM101.382 36.4716V11.0073H104.57V36.4716H101.382ZM109.461 36.4716V11.0073H112.648V36.4716H109.461ZM117.484 43.5906L117.1 40.6335C117.814 40.7978 118.419 40.9073 118.968 40.9073C119.683 40.9073 120.232 40.7978 120.672 40.5787C121.057 40.3049 121.441 39.9763 121.716 39.593C121.881 39.2644 122.211 38.4978 122.705 37.2382C122.76 37.0739 122.815 36.8001 122.98 36.4716L115.836 18.0168H119.243L123.2 28.6954C123.694 30.0644 124.134 31.4882 124.574 32.9668C124.903 31.543 125.343 30.1192 125.893 28.7501L129.904 18.0168H133.092L125.893 36.7454C125.123 38.7716 124.574 40.1954 124.134 40.962C123.585 42.0025 122.925 42.7144 122.156 43.2073C121.441 43.7001 120.562 43.9192 119.518 43.9192C118.913 43.9192 118.254 43.8097 117.484 43.5906ZM136.224 36.4716V11.0073H146.062C147.765 11.0073 149.084 11.062 150.019 11.2263C151.283 11.4454 152.382 11.8287 153.261 12.4311C154.085 13.0335 154.8 13.8549 155.349 14.8954C155.844 15.9359 156.119 17.0859 156.119 18.3454C156.119 20.5359 155.404 22.343 153.975 23.8763C152.601 25.3549 150.019 26.1216 146.336 26.1216H139.687V36.4716H136.224ZM139.687 23.1097H146.391C148.645 23.1097 150.238 22.6716 151.173 21.9049C152.107 21.0835 152.547 19.9335 152.547 18.4549C152.547 17.4144 152.272 16.4835 151.722 15.7168C151.173 14.9501 150.458 14.4573 149.579 14.2382C148.974 14.0739 147.93 14.0192 146.336 14.0192H139.687V23.1097ZM160.076 36.4716V18.0168H162.933V20.8097C163.648 19.4954 164.362 18.6192 164.967 18.2359C165.571 17.7978 166.286 17.5787 167 17.5787C168.099 17.5787 169.198 17.9073 170.297 18.6192L169.198 21.5216C168.429 21.0287 167.66 20.8097 166.89 20.8097C166.176 20.8097 165.516 21.0287 164.967 21.4668C164.417 21.8501 164.032 22.3978 163.813 23.1644C163.428 24.2597 163.263 25.4644 163.263 26.7787V36.4716H160.076ZM172.221 14.5668V11.0073H175.408V14.5668H172.221ZM172.221 36.4716V18.0168H175.408V36.4716H172.221ZM180.299 36.4716V18.0168H183.157V20.5906C183.762 19.7144 184.531 18.9478 185.52 18.4001C186.51 17.8525 187.609 17.5787 188.873 17.5787C190.302 17.5787 191.456 17.8525 192.335 18.4549C193.214 19.0025 193.874 19.8239 194.203 20.8097C195.687 18.6739 197.666 17.5787 200.029 17.5787C201.897 17.5787 203.381 18.0716 204.37 19.112C205.36 20.1525 205.854 21.6859 205.854 23.7668V36.4716H202.722V24.862C202.722 23.6025 202.612 22.6716 202.392 22.1239C202.172 21.5763 201.787 21.1382 201.238 20.8097C200.743 20.4811 200.084 20.3168 199.314 20.3168C197.995 20.3168 196.896 20.7549 196.017 21.5763C195.138 22.4525 194.698 23.8216 194.698 25.7382V36.4716H191.511V24.4787C191.511 23.1097 191.236 22.0144 190.741 21.3573C190.192 20.6454 189.367 20.3168 188.158 20.3168C187.279 20.3168 186.455 20.5359 185.685 20.9739C184.916 21.4668 184.366 22.1239 184.036 23.0001C183.707 23.9311 183.487 25.1906 183.487 26.8882V36.4716H180.299ZM223.55 30.5025L226.848 30.9406C226.298 32.8025 225.364 34.2811 223.935 35.3216C222.561 36.362 220.747 36.8549 218.549 36.8549C215.801 36.8549 213.603 36.0335 212.009 34.3906C210.361 32.693 209.536 30.393 209.536 27.3811C209.536 24.3144 210.361 21.9049 212.009 20.1525C213.658 18.4549 215.746 17.5787 218.384 17.5787C220.912 17.5787 222.946 18.4549 224.539 20.0978C226.133 21.7954 226.957 24.1501 226.957 27.2168C226.957 27.3811 226.957 27.6549 226.957 28.0382H212.889C212.999 30.0644 213.548 31.5978 214.647 32.693C215.691 33.7882 217.01 34.2811 218.549 34.2811C219.758 34.2811 220.747 34.0073 221.572 33.4049C222.396 32.8025 223.056 31.8168 223.55 30.5025ZM213.053 25.4644H223.605C223.44 23.9311 223.056 22.7263 222.396 21.9597C221.352 20.7549 220.033 20.1525 218.384 20.1525C216.955 20.1525 215.691 20.6454 214.702 21.6311C213.713 22.562 213.163 23.8763 213.053 25.4644Z" fill="#3069B1"/>
</g>
<defs>
<clipPath id="clip0_4_26">
<rect width="227" height="46" fill="white"/>
</clipPath>
</defs>
</svg>
